<svg width="405" height="176" viewBox="0 0 405 176" fill="none" xmlns="http://www.w3.org/2000/svg">
<mask id="mask0_31_1860" style="mask-type:luminance" maskUnits="userSpaceOnUse" x="30" y="78" width="116" height="20">
<path d="M30.5217 78.6133H145.107V97.3866H30.5217V78.6133Z" fill="white"/>
</mask>
<g mask="url(#mask0_31_1860)">
<path d="M195.048 78.875H102.488L98.5353 85.7042H89.3825L85.4297 78.875C82.0226 78.875 39.3169 78.875 35.9098 78.875L30.7969 87.7208L35.9098 96.5713C39.3169 96.5713 82.0226 96.5713 85.4297 96.5713L89.3825 89.7421H98.5353L102.488 96.5713H195.048C196.066 90.7275 196.066 84.7371 195.048 78.875Z" fill="#0091FF"/>
</g>
<mask id="mask1_31_1860" style="mask-type:luminance" maskUnits="userSpaceOnUse" x="51" y="35" width="95" height="19">
<path d="M51.6522 35.2002H145.107V53.9735H51.6522V35.2002Z" fill="white"/>
</mask>
<g mask="url(#mask1_31_1860)">
<path d="M67.9724 53.0615L71.9252 46.2323H81.0734L85.0262 53.0615H182.612C164.27 32.3952 143.704 35.3469 118.895 35.3469H85.0262L81.0734 42.176H71.9252L67.9724 35.3469H57.7465L52.6335 44.1973L57.7465 53.0431H67.9724V53.0615Z" fill="#0091FF"/>
</g>
<mask id="mask2_31_1860" style="mask-type:luminance" maskUnits="userSpaceOnUse" x="99" y="56" width="47" height="20">
<path d="M99.7826 56.3203H145.107V75.0936H99.7826V56.3203Z" fill="white"/>
</mask>
<g mask="url(#mask2_31_1860)">
<path d="M129.103 63.9471H119.95L115.997 57.1179H105.776L100.663 65.9684L105.776 74.8188H115.997L119.95 67.9896H129.103L133.056 74.8188H194.186C192.535 68.3563 189.674 62.3704 185.863 57.0996H133.056L129.103 63.9471Z" fill="#0091FF"/>
</g>
<mask id="mask3_31_1860" style="mask-type:luminance" maskUnits="userSpaceOnUse" x="1" y="78" width="22" height="20">
<path d="M1.59583 78.6133H22.3044V97.3866H1.59583V78.6133Z" fill="white"/>
</mask>
<g mask="url(#mask3_31_1860)">
<path d="M6.71341 78.875L1.60046 87.7208L6.71341 96.5896H16.9576L22.066 87.7208L16.9576 78.875H6.71341Z" fill="#0091FF"/>
</g>
<path d="M71.4666 65.9676L76.5795 74.818H86.8191L91.9321 65.9676L86.8191 57.1172H76.5795L71.4666 65.9676Z" fill="#0091FF"/>
<path d="M41.6556 122.384L36.5243 131.248L41.6556 140.098H51.8769L56.9898 131.248L51.8769 122.384H41.6556Z" fill="#0091FF"/>
<mask id="mask4_31_1860" style="mask-type:luminance" maskUnits="userSpaceOnUse" x="56" y="99" width="90" height="20">
<path d="M56.3478 99.7334H145.107V118.507H56.3478V99.7334Z" fill="white"/>
</mask>
<g mask="url(#mask4_31_1860)">
<path d="M85.4296 107.456H76.2814L72.3286 100.627H62.1027L56.9897 109.477L62.1027 118.328H72.3286L76.2814 111.494H85.4296L89.3824 118.328H185.845C189.656 113.057 192.522 107.071 194.172 100.608C162.147 100.608 121.39 100.608 89.3687 100.608L85.4296 107.456Z" fill="#0091FF"/>
</g>
<mask id="mask5_31_1860" style="mask-type:luminance" maskUnits="userSpaceOnUse" x="64" y="122" width="82" height="19">
<path d="M64.5652 122.026H145.107V140.8H64.5652V122.026Z" fill="white"/>
</mask>
<g mask="url(#mask5_31_1860)">
<path d="M111.641 129.231H102.488L98.5352 122.398C89.3136 122.398 80.0736 122.398 70.8336 122.398L65.7207 131.248L70.8336 140.098C80.0736 140.098 89.2953 140.098 98.5352 140.098L102.488 133.269H111.641L115.594 140.098C141.787 140.098 163.797 143.591 182.612 122.384H115.594L111.641 129.231Z" fill="#0091FF"/>
</g>
<path d="M180.779 90.1376H169.535V46.376H204.238V55.121H180.779V65.4426H199.231V74.1876H180.779V90.1376Z" fill="white"/>
<path d="M232.375 90.1376H221.131V46.376H232.375V63.5726H238.006L247.764 46.376H259.65L247.397 67.936L259.595 90.1376H247.709L238.006 72.3176H232.375V90.1376Z" fill="white"/>
<path d="M314.068 90.1376H302.806V72.3176H287.16V90.1376H275.916V46.376H287.16V63.5726H302.806V46.376H314.068V90.1376Z" fill="white"/>
<path d="M355.338 90.1376H344.076V55.121H330.942V46.376H368.471V55.121H355.338V90.1376Z" fill="white"/>
<path d="M383.473 80.751H394.735V90.1376H383.473V80.751Z" fill="white"/>
<path d="M188.558 134.331H183.459V126.246H176.361V134.331H171.261V114.494H176.361V122.286H183.459V114.494H188.558V134.331Z" fill="white"/>
<path d="M220.258 119.885C220.258 118.748 219.694 118.18 218.57 118.18H213.746C212.609 118.18 212.041 118.748 212.041 119.885V128.941C212.041 130.078 212.609 130.646 213.746 130.646H218.57C219.694 130.646 220.258 130.078 220.258 128.941V119.885ZM225.376 128.941C225.376 130.935 224.922 132.379 224.018 133.268C223.124 134.162 221.689 134.606 219.708 134.606H212.609C210.628 134.606 209.184 134.162 208.28 133.268C207.386 132.379 206.941 130.935 206.941 128.941V119.885C206.941 117.895 207.386 116.452 208.28 115.558C209.184 114.655 210.628 114.201 212.609 114.201H219.708C221.689 114.201 223.124 114.655 224.018 115.558C224.922 116.452 225.376 117.895 225.376 119.885V128.941Z" fill="white"/>
<path d="M243.153 130.224C248.335 130.508 251.848 130.646 253.682 130.646C254.108 130.646 254.452 130.517 254.709 130.261C254.966 130.004 255.094 129.665 255.094 129.234V126.686H248.583C246.588 126.686 245.139 126.241 244.236 125.347C243.341 124.445 242.897 122.996 242.897 121.002V120.159C242.897 118.179 243.341 116.745 244.236 115.851C245.139 114.948 246.588 114.494 248.583 114.494H258.524V118.454H249.702C248.574 118.454 248.014 119.022 248.014 120.159V120.727C248.014 121.864 248.574 122.432 249.702 122.432H254.819C256.663 122.432 258.02 122.868 258.891 123.734C259.758 124.605 260.193 125.962 260.193 127.804V129.234C260.193 131.081 259.758 132.438 258.891 133.304C258.02 134.175 256.663 134.606 254.819 134.606C253.852 134.606 252.829 134.587 251.756 134.551L249.151 134.441C247.216 134.34 245.217 134.216 243.153 134.056V130.224Z" fill="white"/>
<path d="M287.935 134.331H282.836V118.454H276.875V114.494H293.897V118.454H287.935V134.331Z" fill="white"/>
<path d="M320.789 134.331H310.573V130.371H313.141V118.454H310.573V114.494H320.789V118.454H318.24V130.371H320.789V134.331Z" fill="white"/>
<path d="M356.189 134.331H350.796L343.991 122.432V134.331H338.892V114.494H344.285L351.09 126.392V114.494H356.189V134.331Z" fill="white"/>
<path d="M392.144 133.909C387.728 134.372 383.67 134.606 379.965 134.606C378.103 134.606 376.741 134.175 375.874 133.304C375.003 132.438 374.572 131.081 374.572 129.234V120.159C374.572 118.179 375.017 116.745 375.911 115.851C376.814 114.948 378.259 114.494 380.24 114.494H390.457V118.454H381.377C380.24 118.454 379.671 119.022 379.671 120.159V129.234C379.671 129.665 379.8 130.004 380.056 130.261C380.313 130.517 380.653 130.646 381.084 130.646C383.257 130.646 385.247 130.6 387.045 130.499V126.392H383.358V123.001H392.144V133.909Z" fill="white"/>
<path d="M145.95 27.6924V148.312" stroke="#0091FF" stroke-width="6" stroke-linecap="round"/>
</svg>
